<svg xmlns="http://www.w3.org/2000/svg" width="1024" height="1024" viewBox="0 0 1024 1024" role="img" aria-label="MIDAS-Bénin">
  <defs>
    <linearGradient id="emerald" x1="120" y1="80" x2="900" y2="960" gradientUnits="userSpaceOnUse">
      <stop offset="0" stop-color="#34D399"/>
      <stop offset="0.48" stop-color="#10B981"/>
      <stop offset="1" stop-color="#047857"/>
    </linearGradient>
    <linearGradient id="glow" x1="300" y1="180" x2="720" y2="810" gradientUnits="userSpaceOnUse">
      <stop stop-color="#ECFDF5" stop-opacity=".95"/>
      <stop offset="1" stop-color="#A7F3D0" stop-opacity=".78"/>
    </linearGradient>
    <filter id="shadow" x="-25%" y="-25%" width="150%" height="160%">
      <feDropShadow dx="0" dy="22" stdDeviation="20" flood-color="#064E3B" flood-opacity=".34"/>
    </filter>
  </defs>
  <rect width="1024" height="1024" rx="250" fill="#ECFDF5"/>
  <circle cx="512" cy="512" r="430" fill="url(#emerald)" filter="url(#shadow)"/>
  <circle cx="512" cy="512" r="382" fill="none" stroke="#D1FAE5" stroke-opacity=".26" stroke-width="8"/>
  <path d="M512 188 770 286v190c0 176-105 302-258 366C359 778 254 652 254 476V286l258-98Z" fill="#065F46" fill-opacity=".32" stroke="url(#glow)" stroke-width="24" stroke-linejoin="round"/>
  <path d="M348 645V390c0-20 16-36 36-36h55l73 110 73-110h55c20 0 36 16 36 36v255c0 20-16 36-36 36s-36-16-36-36V485l-62 91c-14 21-45 21-59 0l-63-91v160c0 20-16 36-36 36s-36-16-36-36Z" fill="#F0FDF4"/>
  <circle cx="760" cy="298" r="38" fill="#D1FAE5"/>
  <path d="M744 298h32M760 282v32" stroke="#047857" stroke-width="10" stroke-linecap="round"/>
</svg>
